# xmcd
#
# Track frame offsets:
#	150
#	20698
#	34798
#	63061
#	77878
#	91686
#	109483
#	125180
#	152334
#	173542
#	194090
#
# Disc length: 2672 seconds
#
# Revision: 0
# Processed by: cddbd v1.5.1PL0 Copyright (c) Steve Scherf et al.
# Submitted via: dBpowerAMP V4.0
#
DISCID=8a0a6e0b
DTITLE=Riccardo Marasco - Varie
DYEAR=1900
DGENRE=Country
TTITLE0=I'fattaccio
TTITLE1=La ribollita
TTITLE2=Da i'Pashkoshky
TTITLE3=Maremma
TTITLE4=Giulia
TTITLE5=Gli è tre ore
TTITLE6=La capannuccia
TTITLE7=La lallera
TTITLE8=Teresina
TTITLE9=I'fattaccio
TTITLE10=L'alluvione
EXTD=Varie canzioni di Riccardo Marasco
EXTT0=
EXTT1=
EXTT2=
EXTT3=
EXTT4=
EXTT5=
EXTT6=
EXTT7=
EXTT8=
EXTT9=
EXTT10=
PLAYORDER=
